<svg width="0" height="0"><symbol xmlns="http://www.w3.org/2000/svg" id="asc-sort" fill="none" stroke="currentColor" stroke-linecap="round" stroke-linejoin="round" stroke-width="2" viewBox="0 0 24 24"><path d="m3 8 4-4 4 4M7 4v16M20 8h-5m0 2V6.5a2.5 2.5 0 0 1 5 0V10m-5 4h5l-5 6h5"/></symbol><symbol xmlns="http://www.w3.org/2000/svg" id="chevron-down" fill="none" stroke="currentColor" stroke-linecap="round" stroke-linejoin="round" stroke-width="2" viewBox="0 0 24 24"><path d="m6 9 6 6 6-6"/></symbol><symbol xmlns="http://www.w3.org/2000/svg" id="chevron-left" fill="none" stroke="currentColor" stroke-linecap="round" stroke-linejoin="round" stroke-width="2" viewBox="0 0 24 24"><path d="m15 18-6-6 6-6"/></symbol><symbol xmlns="http://www.w3.org/2000/svg" id="close" viewBox="0 0 22 22"><path d="M5.2 6.167a.684.684 0 0 1 .967-.967L11 10.033 15.833 5.2a.683.683 0 1 1 .967.967L11.967 11l4.833 4.833a.684.684 0 0 1-.967.967L11 11.967 6.167 16.8a.684.684 0 0 1-.967-.967L10.033 11 5.2 6.167Z"/></symbol><symbol xmlns="http://www.w3.org/2000/svg" id="desc-sort" fill="none" stroke="currentColor" stroke-linecap="round" stroke-linejoin="round" stroke-width="2" viewBox="0 0 24 24"><path d="m3 16 4 4 4-4m-4 4V4m13 4h-5m0 2V6.5a2.5 2.5 0 0 1 5 0V10m-5 4h5l-5 6h5"/></symbol><symbol xmlns="http://www.w3.org/2000/svg" id="double-arrows" viewBox="0 0 24 24"><path d="M13.1 19.5a1.5 1.5 0 0 1-1.061-2.561l4.586-4.585a.5.5 0 0 0 0-.708l-4.582-4.585a1.5 1.5 0 0 1 2.121-2.122l4.586 4.586a3.505 3.505 0 0 1 0 4.95l-4.586 4.586a1.5 1.5 0 0 1-1.064.439Z"/><path d="M6.1 19.5a1.5 1.5 0 0 1-1.061-2.561L9.982 12 5.043 7.061a1.5 1.5 0 0 1 2.121-2.122l6 6a1.5 1.5 0 0 1 0 2.122l-6 6A1.5 1.5 0 0 1 6.1 19.5Z"/></symbol><symbol xmlns="http://www.w3.org/2000/svg" id="ellipsis" fill="none" stroke="currentColor" stroke-linecap="round" stroke-linejoin="round" stroke-width="2" viewBox="0 0 24 24"><circle cx="12" cy="12" r="1"/><circle cx="19" cy="12" r="1"/><circle cx="5" cy="12" r="1"/></symbol><symbol xmlns="http://www.w3.org/2000/svg" id="filter-s" fill="none" stroke="currentColor" stroke-linecap="round" stroke-linejoin="round" stroke-width="2" viewBox="0 0 24 24"><path d="M13.013 3H2l8 9.46V19l4 2v-8.54l.9-1.055M22 3l-5 5m0-5 5 5"/></symbol><symbol xmlns="http://www.w3.org/2000/svg" id="headset" viewBox="0 0 24 24"><path d="M23 16.755c0-2.521-.967-3.892-2.279-4.629C20.613 4.95 17.911 1.743 12 1.743S3.38 4.957 3.278 12.152C2.022 12.882 1 14.237 1 16.755c0 4.89 3.638 5.455 6.375 5.455a1 1 0 0 0 .949-.686 15.25 15.25 0 0 0 0-9.539 1 1 0 0 0-.949-.686c-.474 0-1.239 0-2.077.148C5.567 5.087 8.18 3.741 12 3.741s6.434 1.347 6.702 7.71a12.514 12.514 0 0 0-2.077-.152 1 1 0 0 0-.949.686c-.881 2.657-1 5.547-.359 8.268a31.215 31.215 0 0 1-3.044-.091 1 1 0 0 0-.161 1.994c.839.067 1.718.102 2.629.102.623 0 1.261-.016 1.911-.048 1.603 0 6.348-.03 6.348-5.455ZM6.637 20.193C3.968 20.055 3 19.102 3 16.755s.968-3.3 3.637-3.438a13.269 13.269 0 0 1 0 6.875Zm10.726 0a13.269 13.269 0 0 1 0-6.875c2.669.138 3.637 1.091 3.637 3.438s-.968 3.3-3.637 3.438Z"/></symbol><symbol xmlns="http://www.w3.org/2000/svg" id="logout" fill="currentColor" aria-hidden="true" viewBox="0 0 20 20"><path fill-rule="evenodd" d="M14.78 7.47a.75.75 0 0 1 0 1.06l-2.5 2.5a.75.75 0 1 1-1.06-1.06l1.22-1.22H4.75a.75.75 0 0 1 0-1.5h7.69l-1.22-1.22a.75.75 0 0 1 1.06-1.06l2.5 2.5ZM9.5 4.25a.75.75 0 0 1-1.5 0V4a1.5 1.5 0 0 0-1.5-1.5H4A1.5 1.5 0 0 0 2.5 4v8A1.5 1.5 0 0 0 4 13.5h2.5A1.5 1.5 0 0 0 8 12v-.25a.75.75 0 0 1 1.5 0V12a3 3 0 0 1-3 3H4a3 3 0 0 1-3-3V4a3 3 0 0 1 3-3h2.5a3 3 0 0 1 3 3v.25Z" clip-rule="evenodd">/</path></symbol><symbol xmlns="http://www.w3.org/2000/svg" id="pencil" fill="none" stroke="currentColor" stroke-linecap="round" stroke-linejoin="round" stroke-width="2" viewBox="0 0 24 24"><path d="M21.174 6.812a1 1 0 0 0-3.986-3.987L3.842 16.174a2 2 0 0 0-.5.83l-1.321 4.352a.5.5 0 0 0 .623.622l4.353-1.32a2 2 0 0 0 .83-.497zM15 5l4 4"/></symbol><symbol xmlns="http://www.w3.org/2000/svg" id="settings" fill="none" viewBox="0 0 16 16"><path fill="currentColor" fill-rule="evenodd" d="M7.199 2H8.8a.2.2 0 0 1 .2.2c0 1.808 1.958 2.939 3.524 2.034a.199.199 0 0 1 .271.073l.802 1.388a.199.199 0 0 1-.073.272c-1.566.904-1.566 3.164 0 4.069a.199.199 0 0 1 .073.271l-.802 1.388a.199.199 0 0 1-.271.073C10.958 10.863 9 11.993 9 13.8a.2.2 0 0 1-.199.2H7.2a.199.199 0 0 1-.2-.2c0-1.808-1.958-2.938-3.524-2.034a.199.199 0 0 1-.272-.073l-.8-1.388a.199.199 0 0 1 .072-.271c1.566-.905 1.566-3.165 0-4.07a.199.199 0 0 1-.073-.271l.801-1.388a.199.199 0 0 1 .272-.073C5.042 5.138 7 4.007 7 2.2c0-.11.089-.199.199-.199ZM5.5 2.2c0-.94.76-1.7 1.699-1.7H8.8c.94 0 1.7.76 1.7 1.7a.85.85 0 0 0 1.274.735 1.699 1.699 0 0 1 2.32.622l.802 1.388c.469.813.19 1.851-.622 2.32a.85.85 0 0 0 0 1.472 1.7 1.7 0 0 1 .622 2.32l-.802 1.388a1.699 1.699 0 0 1-2.32.622.85.85 0 0 0-1.274.735c0 .939-.76 1.7-1.699 1.7H7.2a1.7 1.7 0 0 1-1.699-1.7.85.85 0 0 0-1.274-.735 1.698 1.698 0 0 1-2.32-.622l-.802-1.388a1.699 1.699 0 0 1 .622-2.32.85.85 0 0 0 0-1.471 1.699 1.699 0 0 1-.622-2.321l.801-1.388a1.699 1.699 0 0 1 2.32-.622A.85.85 0 0 0 5.5 2.2Zm4 5.8a1.5 1.5 0 1 1-3 0 1.5 1.5 0 0 1 3 0ZM11 8a3 3 0 1 1-6 0 3 3 0 0 1 6 0Z" clip-rule="evenodd"/></symbol><symbol xmlns="http://www.w3.org/2000/svg" id="terms" viewBox="0 0 24 24"><path d="M17 24H7c-2.757 0-5-2.243-5-5V5c0-2.757 2.243-5 5-5h10c2.757 0 5 2.243 5 5v14c0 2.757-2.243 5-5 5ZM7 2C5.346 2 4 3.346 4 5v14c0 1.654 1.346 3 3 3h10c1.654 0 3-1.346 3-3V5c0-1.654-1.346-3-3-3H7Zm11 4a1 1 0 0 0-1-1h-4a1 1 0 0 0 0 2h4a1 1 0 0 0 1-1Zm0 6a1 1 0 0 0-1-1h-4a1 1 0 0 0 0 2h4a1 1 0 0 0 1-1Zm0 6a1 1 0 0 0-1-1h-4a1 1 0 0 0 0 2h4a1 1 0 0 0 1-1ZM10 7V5a1 1 0 0 0-1-1H7a1 1 0 0 0-1 1v2a1 1 0 0 0 1 1h2a1 1 0 0 0 1-1Zm0 6v-2a1 1 0 0 0-1-1H7a1 1 0 0 0-1 1v2a1 1 0 0 0 1 1h2a1 1 0 0 0 1-1Zm0 6v-2a1 1 0 0 0-1-1H7a1 1 0 0 0-1 1v2a1 1 0 0 0 1 1h2a1 1 0 0 0 1-1Z"/></symbol><symbol xmlns="http://www.w3.org/2000/svg" id="trash" fill="none" stroke="currentColor" stroke-linecap="round" stroke-linejoin="round" stroke-width="2" viewBox="0 0 24 24"><path d="M3 6h18m-2 0v14c0 1-1 2-2 2H7c-1 0-2-1-2-2V6m3 0V4c0-1 1-2 2-2h4c1 0 2 1 2 2v2"/></symbol><symbol xmlns="http://www.w3.org/2000/svg" id="user" fill="none" stroke="currentColor" stroke-linecap="round" stroke-linejoin="round" stroke-width="2" viewBox="0 0 24 24"><circle cx="12" cy="8" r="5"/><path d="M20 21a8 8 0 0 0-16 0"/></symbol><symbol xmlns="http://www.w3.org/2000/svg" id="users" fill="none" stroke="currentColor" stroke-linecap="round" stroke-linejoin="round" stroke-width="2" viewBox="0 0 24 24"><path d="M18 21a8 8 0 0 0-16 0"/><circle cx="10" cy="8" r="5"/><path d="M22 20c0-3.37-2-6.5-4-8a5 5 0 0 0-.45-8.3"/></symbol></svg>