<svg width="0" height="0"><symbol xmlns="http://www.w3.org/2000/svg" id="close" viewBox="0 0 22 22"><path d="M5.2 6.167a.684.684 0 0 1 .967-.967L11 10.033 15.833 5.2a.683.683 0 1 1 .967.967L11.967 11l4.833 4.833a.684.684 0 0 1-.967.967L11 11.967 6.167 16.8a.684.684 0 0 1-.967-.967L10.033 11 5.2 6.167Z"/></symbol><symbol xmlns="http://www.w3.org/2000/svg" id="double-arrows" viewBox="0 0 24 24"><path d="M13.1 19.5a1.5 1.5 0 0 1-1.061-2.561l4.586-4.585a.5.5 0 0 0 0-.708l-4.582-4.585a1.5 1.5 0 0 1 2.121-2.122l4.586 4.586a3.505 3.505 0 0 1 0 4.95l-4.586 4.586a1.5 1.5 0 0 1-1.064.439Z"/><path d="M6.1 19.5a1.5 1.5 0 0 1-1.061-2.561L9.982 12 5.043 7.061a1.5 1.5 0 0 1 2.121-2.122l6 6a1.5 1.5 0 0 1 0 2.122l-6 6A1.5 1.5 0 0 1 6.1 19.5Z"/></symbol><symbol xmlns="http://www.w3.org/2000/svg" id="logout" fill="none" stroke="currentColor" stroke-linecap="round" stroke-linejoin="round" stroke-width="2" viewBox="0 0 24 24"><path d="M9 21H5a2 2 0 0 1-2-2V5a2 2 0 0 1 2-2h4m7 14 5-5-5-5m5 5H9"/></symbol><symbol xmlns="http://www.w3.org/2000/svg" id="user" fill="none" stroke="currentColor" stroke-linecap="round" stroke-linejoin="round" stroke-width="2" viewBox="0 0 24 24"><circle cx="12" cy="8" r="5"/><path d="M20 21a8 8 0 0 0-16 0"/></symbol><symbol xmlns="http://www.w3.org/2000/svg" id="users" fill="none" stroke="currentColor" stroke-linecap="round" stroke-linejoin="round" stroke-width="2" viewBox="0 0 24 24"><path d="M18 21a8 8 0 0 0-16 0"/><circle cx="10" cy="8" r="5"/><path d="M22 20c0-3.37-2-6.5-4-8a5 5 0 0 0-.45-8.3"/></symbol></svg>